<?xml version="1.0" encoding="utf-8"?>
<!-- Generator: Adobe Illustrator 26.3.1, SVG Export Plug-In . SVG Version: 6.00 Build 0)  -->
<svg version="1.1" id="Warstwa_1" xmlns="http://www.w3.org/2000/svg" xmlns:xlink="http://www.w3.org/1999/xlink" x="0px" y="0px"
	 viewBox="0 0 1086.67 341.33" style="enable-background:new 0 0 1086.67 341.33;" xml:space="preserve">
<style type="text/css">
	.st0{fill:#2D6C5E;}
</style>
<g>
	<g>
		<path class="st0" d="M191.75,228.54c4.43,0,7.77,0.98,9.97,3.03c1.88,1.75,3.14,4.2,3.14,7.7c0,4.21-1.66,7.35-4.33,9.41
			c-2.6,2-5.79,2.95-9.59,2.95h-9.65v-0.87c2.65-0.34,2.95-0.6,2.95-3.66v-14.03c0-3.08-0.35-3.33-2.95-3.66v-0.87H191.75z
			 M188.65,246.61c0.02,2.77,0.88,3.75,3.73,3.75c4.9,0,7.53-3.58,7.53-10.52c0-3.58-1.04-6.6-2.92-8.26
			c-1.48-1.4-3.28-1.92-5.63-1.92c-1.36,0-2.04,0.25-2.34,0.5c-0.35,0.29-0.41,0.86-0.41,2.02L188.65,246.61z"/>
		<path class="st0" d="M242.16,245.91c-0.18,1.11-0.97,4.79-1.24,5.72h-17.67v-0.86c3.14-0.38,3.38-0.57,3.38-3.63v-14.1
			c0-3.12-0.28-3.36-2.79-3.63v-0.87h11.02c3.54,0,4.85-0.03,5.25-0.07c0.03,1.04,0.19,3.6,0.35,5.38l-0.91,0.14
			c-0.3-1.03-0.81-2.37-1.47-3.15c-0.64-0.79-1.27-1-3.26-1h-2.65c-1.02,0-1.15,0.11-1.15,1.05v8.02h3.55c2.45,0,2.68-0.65,3.18-3
			h0.91v7.37h-0.91c-0.53-2.36-0.73-3-3.19-3h-3.54v7.03c0,2.46,0.4,3,2.56,3.03H236c2.03,0,2.53-0.28,3.38-1.26
			c0.73-0.84,1.35-2.08,1.92-3.38L242.16,245.91z"/>
		<path class="st0" d="M273.57,233.9c-0.72-2.62-2.06-4.76-5.07-4.76c-2.18,0-3.43,1.53-3.43,3.65c0,2.17,1.31,3.29,4.37,4.98
			c3.39,1.85,5.98,3.71,5.98,7.35c0,4.08-3.42,7.04-8.24,7.04c-1.99,0-3.83-0.48-5.58-0.98c-0.22-0.77-0.77-4.59-0.9-5.67l0.91-0.2
			c0.74,2.66,2.73,5.75,6.13,5.75c2.39,0,3.59-1.6,3.59-3.94c0-2.23-1.35-3.64-4.08-5.21c-3.38-1.95-5.9-3.73-5.9-7.36
			c0-3.64,2.87-6.51,7.78-6.51c2.27,0,3.96,0.47,4.73,0.55c0.14,1.31,0.36,3.17,0.63,5.11L273.57,233.9z"/>
		<path class="st0" d="M293.92,228.54h10.21v0.87c-2.61,0.42-2.94,0.62-2.94,3.7v6.27c0.57-0.17,1.3-0.68,2.17-1.49
			c2.41-2.24,4.56-4.66,6.01-6.38c1.03-1.23,0.85-1.61-0.96-1.97l-0.74-0.13v-0.87h8.66v0.87c-2.59,0.37-3.58,0.67-5.52,2.68
			c-1.69,1.72-3.71,3.72-5.63,5.76c2.41,3.24,5.43,7.18,8.01,10.28c1.67,2,2.23,2.34,4.06,2.63v0.87h-6.89
			c-1.97-2.53-5.24-6.87-7.54-9.98c-0.76-1.04-1.2-1.35-1.62-1.37v6.77c0,3.11,0.27,3.26,2.96,3.71v0.87h-10.22v-0.87
			c2.61-0.38,2.95-0.58,2.95-3.71v-13.93c0-3.1-0.32-3.35-2.95-3.71V228.54z"/>
		<path class="st0" d="M346.23,251.63v-0.87c2.33-0.42,2.4-0.8,1.83-2.46c-0.4-1.17-1.02-2.97-1.71-4.82h-6.78
			c-0.53,1.47-1.08,2.97-1.49,4.22c-0.78,2.32-0.25,2.62,2.69,3.05v0.87h-8.13v-0.87c2.27-0.34,2.79-0.72,4.03-3.83l7.37-18.63
			l1.23-0.21c2.25,6.25,4.61,12.54,6.94,18.66c1.25,3.33,1.6,3.61,3.85,4v0.87H346.23z M343.05,234.13c-1.08,2.81-2,5.3-2.97,7.95
			h5.76L343.05,234.13z"/>
		<path class="st0" d="M414.59,234.15c-0.39-1.44-0.85-2.55-1.46-3.3c-0.62-0.77-0.99-1.02-2.94-1.02h-2.81v17.32
			c0,2.98,0.34,3.25,3.32,3.62v0.87H399.8v-0.87c2.84-0.42,3.18-0.6,3.18-3.62v-17.32h-2.91c-1.76,0-2.25,0.37-2.82,1.08
			c-0.54,0.69-1.04,1.92-1.47,3.29h-0.92c0.21-2.19,0.42-4.69,0.5-6.46h0.73c0.56,0.78,1.04,0.81,2.08,0.81h14.28
			c0.95,0,1.44-0.15,2.07-0.81h0.7c0.01,1.55,0.1,4.3,0.28,6.33L414.59,234.15z"/>
		<path class="st0" d="M445.93,228.05c6.36,0,11.67,4.86,11.67,11.8c0,7.49-5.28,12.32-11.83,12.32c-6.92,0-11.94-5.25-11.94-11.94
			C433.84,234.11,438.22,228.05,445.93,228.05z M445.29,229.21c-3.61,0-6.38,3.52-6.38,10.23c0,6.41,2.69,11.55,7.46,11.55
			c3.57,0,6.19-3.44,6.19-10.18C452.55,233.52,449.63,229.21,445.29,229.21z"/>
		<path class="st0" d="M523.48,229.42c-2.28,0.41-2.86,0.82-2.95,2.88c-0.06,1.2-0.15,2.23-0.15,5.63v14.15h-1.32l-15.47-18.63v8.75
			c0,3.22,0.06,4.43,0.14,5.53c0.13,2.03,0.62,2.72,3.58,3.04v0.87h-8.45v-0.87c2.39-0.31,2.96-0.83,3.12-2.93
			c0.1-1.25,0.19-2.6,0.19-5.65v-9.03c0-0.92-0.15-1.61-0.64-2.27c-0.79-1.07-1.55-1.27-3.08-1.47v-0.87h6.63l13.87,16.23v-6.85
			c0-3.4-0.07-4.42-0.14-5.56c-0.11-2.05-0.8-2.65-3.82-2.95v-0.87h8.49V229.42z"/>
		<path class="st0" d="M552.84,251.63v-0.87c2.33-0.42,2.4-0.8,1.83-2.46c-0.4-1.17-1.02-2.97-1.71-4.82h-6.78
			c-0.53,1.47-1.08,2.97-1.49,4.22c-0.78,2.32-0.25,2.62,2.69,3.05v0.87h-8.13v-0.87c2.27-0.34,2.79-0.72,4.03-3.83l7.37-18.63
			l1.23-0.21c2.25,6.25,4.61,12.54,6.94,18.66c1.25,3.33,1.6,3.61,3.85,4v0.87H552.84z M549.66,234.13c-1.08,2.81-2,5.3-2.97,7.95
			h5.76L549.66,234.13z"/>
		<path class="st0" d="M593.24,233.9c-0.72-2.62-2.06-4.76-5.07-4.76c-2.18,0-3.43,1.53-3.43,3.65c0,2.17,1.31,3.29,4.37,4.98
			c3.39,1.85,5.98,3.71,5.98,7.35c0,4.08-3.42,7.04-8.24,7.04c-1.99,0-3.83-0.48-5.58-0.98c-0.22-0.77-0.77-4.59-0.9-5.67l0.91-0.2
			c0.74,2.66,2.73,5.75,6.13,5.75c2.39,0,3.59-1.6,3.59-3.94c0-2.23-1.35-3.64-4.08-5.21c-3.38-1.95-5.9-3.73-5.9-7.36
			c0-3.64,2.87-6.51,7.78-6.51c2.27,0,3.96,0.47,4.73,0.55c0.14,1.31,0.36,3.17,0.63,5.11L593.24,233.9z"/>
		<path class="st0" d="M633.23,245.57c-0.27,1.28-1.08,4.56-1.42,6.07h-18.65l-0.25-0.52c4.56-6.88,9.3-14.25,13.78-21.26h-6.25
			c-2.62,0-3.17,0.39-3.96,1.71c-0.43,0.68-0.85,1.6-1.28,2.71l-0.93-0.02c0.21-1.87,0.57-5.03,0.67-6.54h0.79
			c0.51,0.8,0.92,0.83,2.11,0.83h14.32l0.17,0.46c-4.49,6.95-9.33,14.56-13.54,21.27c1,0.07,3.35,0.07,5.66,0.07
			c3.43,0,4.38-0.17,5.42-1.14c0.8-0.73,1.77-2.22,2.45-3.84L633.23,245.57z"/>
		<path class="st0" d="M664.01,251.63v-0.87c2.33-0.42,2.4-0.8,1.83-2.46c-0.4-1.17-1.02-2.97-1.71-4.82h-6.78
			c-0.53,1.47-1.08,2.97-1.49,4.22c-0.78,2.32-0.25,2.62,2.69,3.05v0.87h-8.13v-0.87c2.27-0.34,2.79-0.72,4.03-3.83l7.37-18.63
			l1.23-0.21c2.25,6.25,4.61,12.54,6.93,18.66c1.26,3.33,1.6,3.61,3.85,4v0.87H664.01z M660.83,234.13c-1.08,2.81-2,5.3-2.97,7.95
			h5.76L660.83,234.13z"/>
		<path class="st0" d="M722.6,228.54c2.76,0,4.77,0.51,6.15,1.44c1.67,1.14,2.61,2.8,2.61,5.11c0,5.09-4.39,7.24-8.01,7.26
			c-0.26,0-0.62-0.04-0.85-0.08l-2.14-0.51v5.39c0,3.05,0.3,3.25,3.23,3.6v0.87h-10.58v-0.87c2.68-0.38,2.95-0.56,2.95-3.61v-14.08
			c0-3.09-0.33-3.34-2.94-3.66v-0.87H722.6z M720.36,240.72c0.43,0.18,1.16,0.27,1.97,0.27c1.46,0,4.36-0.78,4.36-5.88
			c0-4.09-2.03-5.49-4.52-5.49c-0.72,0-1.25,0.14-1.46,0.31c-0.29,0.22-0.35,0.59-0.35,1.22V240.72z"/>
		<path class="st0" d="M758.67,251.63v-0.87c2.33-0.42,2.4-0.8,1.83-2.46c-0.4-1.17-1.02-2.97-1.71-4.82h-6.78
			c-0.53,1.47-1.08,2.97-1.49,4.22c-0.78,2.32-0.25,2.62,2.69,3.05v0.87h-8.13v-0.87c2.27-0.34,2.79-0.72,4.03-3.83l7.37-18.63
			l1.23-0.21c2.25,6.25,4.61,12.54,6.94,18.66c1.25,3.33,1.6,3.61,3.85,4v0.87H758.67z M755.49,234.13c-1.08,2.81-2,5.3-2.97,7.95
			h5.76L755.49,234.13z"/>
		<path class="st0" d="M799.07,233.9c-0.72-2.62-2.06-4.76-5.07-4.76c-2.18,0-3.43,1.53-3.43,3.65c0,2.17,1.31,3.29,4.37,4.98
			c3.39,1.85,5.98,3.71,5.98,7.35c0,4.08-3.42,7.04-8.24,7.04c-1.99,0-3.83-0.48-5.58-0.98c-0.22-0.77-0.77-4.59-0.9-5.67l0.91-0.2
			c0.74,2.66,2.73,5.75,6.13,5.75c2.39,0,3.59-1.6,3.59-3.94c0-2.23-1.35-3.64-4.08-5.21c-3.38-1.95-5.9-3.73-5.9-7.36
			c0-3.64,2.87-6.51,7.78-6.51c2.27,0,3.96,0.47,4.73,0.55c0.14,1.31,0.36,3.17,0.63,5.11L799.07,233.9z"/>
		<path class="st0" d="M829.57,229.42c-2.47,0.36-2.76,0.58-2.76,3.64v12.23c0,4.32-0.35,7.36-3.1,9.71
			c-1.49,1.28-3.2,1.94-4.6,2.29l-0.35-0.87c1.94-0.9,3.08-2.21,3.37-4.93c0.22-2.01,0.27-3.61,0.27-6.3v-12.12
			c0-3.08-0.36-3.31-3.03-3.64v-0.87h10.2V229.42z"/>
		<path class="st0" d="M859.04,251.63v-0.87c2.33-0.42,2.4-0.8,1.83-2.46c-0.4-1.17-1.02-2.97-1.71-4.82h-6.78
			c-0.53,1.47-1.08,2.97-1.49,4.22c-0.78,2.32-0.25,2.62,2.69,3.05v0.87h-8.13v-0.87c2.27-0.34,2.79-0.72,4.03-3.83l7.37-18.63
			l1.23-0.21c2.25,6.25,4.61,12.54,6.94,18.66c1.25,3.33,1.6,3.61,3.85,4v0.87H859.04z M855.86,234.13c-1.08,2.81-2,5.3-2.97,7.95
			h5.76L855.86,234.13z"/>
	</g>
</g>
<g>
	<g>
		<path class="st0" d="M478.21,184.7h61.5v-3h-61.5v-42.06l55.76,31.86l1.49-2.6l-57.24-32.71v-4.91l55.01,31.23l1.48-2.61
			l-56.49-32.07V109.7h-3v16.42l-12-6.81V84.7h-3v32.91l-24.51-13.91l-0.01,0.02l-49.98,29.99v10l9-5.4v43.4v9h10h25h11h19.5h3h12
			v16h3v-16h77.5v-3h-77.5V184.7z M475.21,181.7h-12v-50.63l12,6.86V181.7z M475.21,129.57v4.9l-12-6.86v-4.85L475.21,129.57z
			 M460.21,125.9l-24.5-14v-4.75l24.5,13.91V125.9z M404.71,181.7v-49.4l29.59-17.75l25.91,14.81v52.34h-19.5v-22h-11v22H404.71z
			 M440.71,187.7v-3h19.5v3H440.71z M463.21,187.7v-3h12v3H463.21z"/>
		<path class="st0" d="M164.77,190.98h-5.22l-30.32-90.24h3.19c1.38,0,2.5-1.12,2.5-2.5s-1.12-2.5-2.5-2.5h-19.84
			c-1.33,0-2.41,1.04-2.49,2.36l-36.59,93.62h-3.62c-1.38,0-2.5,1.12-2.5,2.5s1.12,2.5,2.5,2.5h13.14c1.38,0,2.5-1.12,2.5-2.5
			s-1.12-2.5-2.5-2.5h-4.14l14.87-38.06h36.47l12.54,37.33h-2.81c-1.38,0-2.5,1.12-2.5,2.5c0,1.38,1.12,2.5,2.5,2.5h24.81
			c1.38,0,2.5-1.12,2.5-2.5C167.27,192.1,166.15,190.98,164.77,190.98z M95.71,148.65l17.66-45.18l15.18,45.18H95.71z"/>
		<path class="st0" d="M278.23,95.04h-16.17c-1.27,0-2.31,0.95-2.47,2.18c-0.13,0.13-0.25,0.28-0.35,0.44l-28.01,45.88l-31.69-46.2
			c0.02-0.11,0.03-0.23,0.03-0.35c0-1.38-1.12-2.5-2.5-2.5h-14.97c-1.38,0-2.5,1.12-2.5,2.5c0,1.38,1.12,2.5,2.5,2.5h2.51l0.28,0.42
			l1.02,91.06h-3.74c-1.38,0-2.5,1.12-2.5,2.5c0,1.38,1.12,2.5,2.5,2.5h13.14c1.38,0,2.5-1.12,2.5-2.5c0-1.38-1.12-2.5-2.5-2.5
			h-4.39l-0.93-83.45l33.15,49.62c-0.17,0.98,0.25,2.01,1.16,2.56c1.18,0.72,2.72,0.35,3.44-0.83l30.78-50.41l-0.67,82.51h-5.81
			c-1.38,0-2.5,1.12-2.5,2.5c0,1.38,1.12,2.5,2.5,2.5h24.81c1.38,0,2.5-1.12,2.5-2.5c0-1.38-1.12-2.5-2.5-2.5h-2.95l0.71-90.94h3.63
			c1.38,0,2.5-1.12,2.5-2.5S279.61,95.04,278.23,95.04z"/>
		<path class="st0" d="M347.22,96.1h-24.81c-1.38,0-2.5,1.12-2.5,2.5c0,1.38,1.12,2.5,2.5,2.5h4.05l1.42,85.44
			c-2.66,15.44-22.32,7.98-23.39-0.05h4.78c1.38,0,2.5-1.12,2.5-2.5c0-1.38-1.12-2.5-2.5-2.5h-13.14c-1.38,0-2.5,1.12-2.5,2.5
			c0,1.38,1.12,2.5,2.5,2.5h4.91c1.28,15.22,31.15,19.28,40.7-1.41l0.71-83.98h4.76c1.38,0,2.5-1.12,2.5-2.5
			C349.72,97.22,348.6,96.1,347.22,96.1z"/>
		<path class="st0" d="M660.01,151.89c-4.56-3.74-10.63-5.86-17.62-7.13c-0.28-0.05-0.56-0.09-0.84-0.14
			c2.89-0.76,5.58-1.7,8.03-2.87c4.02-1.93,7.4-4.5,9.78-7.86c2.38-3.35,3.69-7.46,3.68-12.13c0.01-4.47-1.31-8.51-3.66-11.9
			c-1.76-2.55-4.09-4.73-6.82-6.56c-4.11-2.75-9.15-4.74-14.83-6.06c-4.33-1.01-9.03-1.62-13.99-1.86c-0.2-0.05-0.4-0.08-0.61-0.08
			h-1.7c-0.8-0.02-1.6-0.03-2.41-0.03c-0.1,0-0.2,0.02-0.29,0.03h-19.94c-1.38,0-2.5,1.12-2.5,2.5c0,1.38,1.12,2.5,2.5,2.5h4.63
			l-0.69,89.63h-5.7c-1.38,0-2.5,1.12-2.5,2.5c0,1.38,1.12,2.5,2.5,2.5h24.34c0.05,0,0.1-0.01,0.15-0.02
			c5.49-0.03,10.77-0.18,15.67-0.65c4.24-0.4,8.2-1.04,11.81-2.05c2.71-0.76,5.22-1.73,7.48-2.99c3.39-1.89,6.24-4.47,8.18-7.86
			c1.94-3.39,2.94-7.5,2.94-12.34c0-2.7-0.35-5.18-1.05-7.44C665.33,157.63,663.04,154.38,660.01,151.89z M621.36,100.3
			c10.37,0.25,19.5,2.22,25.95,5.69c3.47,1.86,6.15,4.12,7.95,6.72c1.8,2.61,2.77,5.55,2.77,9.05c-0.01,3.77-0.99,6.73-2.76,9.24
			c-1.33,1.88-3.14,3.51-5.43,4.92c-3.42,2.11-7.91,3.67-13.17,4.68c-5.25,1.01-11.25,1.48-17.67,1.48c-0.06,0-0.11,0.01-0.16,0.02
			l0.33-41.79H621.36z M661.75,175.46c-0.95,3.22-2.59,5.58-4.92,7.51c-1.75,1.44-3.93,2.62-6.49,3.56
			c-3.85,1.42-8.57,2.28-13.88,2.77c-5.31,0.49-11.22,0.62-17.45,0.62h-0.54l0.33-41.83c0.07,0.01,0.14,0.02,0.21,0.02
			c6.3,0,12.28,0.22,17.65,0.85c4.03,0.47,7.71,1.17,10.94,2.15c2.42,0.74,4.57,1.63,6.43,2.7c2.78,1.6,4.88,3.55,6.31,5.98
			c1.43,2.43,2.25,5.41,2.26,9.23C662.59,171.5,662.29,173.62,661.75,175.46z"/>
		<path class="st0" d="M717.16,95.52c-19.49,0-35.32,15.57-35.78,34.95c-0.01,0.07-0.02,0.14-0.02,0.21v30.75
			c0,0.15,0.02,0.29,0.04,0.43c0.89,18.98,16.55,34.1,35.75,34.1c19.2,0,34.87-15.12,35.75-34.1c0.02-0.14,0.04-0.28,0.04-0.43
			v-30.75c0-0.07-0.02-0.14-0.02-0.21C752.48,111.09,736.64,95.52,717.16,95.52z M738.93,181.94c-5.58,5.58-13.26,9.02-21.78,9.02
			c-7.12,0-13.66-2.42-18.88-6.47v-77.5c5.22-4.05,11.75-6.47,18.88-6.47c8.51,0,16.2,3.44,21.78,9.02
			c5.58,5.58,9.02,13.26,9.02,21.78v28.84C747.95,168.67,744.51,176.36,738.93,181.94z"/>
		<path class="st0" d="M843.8,95.09h-12.09c-1.38,0-2.5,1.12-2.5,2.5s1.12,2.5,2.5,2.5h4.92v60.07c0,8.56-3.26,16.27-8.48,21.83
			c-5.24,5.56-12.39,8.96-20.3,8.96c-1.71,0-3.37-0.17-5-0.47c-14.22-9.73-12.92-27.25-12.92-27.25l0.18-62.93h6.39
			c1.38,0,2.5-1.12,2.5-2.5c0-1.38-1.12-2.5-2.5-2.5h-24.18c-1.38,0-2.5,1.12-2.5,2.5c0,1.38,1.12,2.5,2.5,2.5h1.75
			c0,0.02,0,0.03,0,0.05v61.08c0,0.13,0.02,0.26,0.04,0.39c0.4,9.17,4.05,17.47,9.8,23.59c6.09,6.49,14.57,10.54,23.94,10.54
			c9.37,0,17.86-4.05,23.94-10.54c5.75-6.12,9.4-14.42,9.8-23.59c0.02-0.13,0.04-0.26,0.04-0.39v-61.34h2.17
			c1.38,0,2.5-1.12,2.5-2.5S845.18,95.09,843.8,95.09z"/>
		<path class="st0" d="M1021.44,95.3h-13.15c-1.38,0-2.5,1.12-2.5,2.5c0,1.38,1.12,2.5,2.5,2.5h2.93l-28.66,72.21l-29.68-72.21h5.35
			c1.38,0,2.5-1.12,2.5-2.5c0-1.38-1.12-2.5-2.5-2.5h-24.39c-1.38,0-2.5,1.12-2.5,2.5c0,1.38,1.12,2.5,2.5,2.5h3.56l4.65,11.4
			l-23.79,60.69l-29.63-72.09h2.59c1.38,0,2.5-1.12,2.5-2.5c0-1.38-1.12-2.5-2.5-2.5h-22.06c-1.38,0-2.5,1.12-2.5,2.5
			c0,1.38,1.12,2.5,2.5,2.5h3.98l37.4,91.77l-0.02,0.04c-0.5,1.29,0.13,2.74,1.41,3.24c1.29,0.5,2.74-0.13,3.24-1.41l29.61-75.52
			l30.02,73.65l-0.01,0.03c-0.51,1.28,0.12,2.74,1.4,3.25c1.28,0.51,2.74-0.12,3.25-1.4l37.17-93.65h4.84c1.38,0,2.5-1.12,2.5-2.5
			C1023.94,96.42,1022.83,95.3,1021.44,95.3z"/>
	</g>
</g>
</svg>
