<?xml version="1.0" encoding="utf-8"?>
<!-- Generator: Adobe Illustrator 26.3.1, SVG Export Plug-In . SVG Version: 6.00 Build 0)  -->
<svg version="1.1" id="Warstwa_1" xmlns="http://www.w3.org/2000/svg" xmlns:xlink="http://www.w3.org/1999/xlink" x="0px" y="0px"
	 viewBox="0 0 676 631" style="enable-background:new 0 0 676 631;" xml:space="preserve">
<style type="text/css">
	.st0{fill:#128BC7;stroke:#000000;stroke-miterlimit:10;}
	.st1{fill:#ACDBEF;stroke:#000000;stroke-miterlimit:10;}
	.st2{fill:#5CA9CD;stroke:#000000;stroke-miterlimit:10;}
	.st3{fill:#9CCCE1;stroke:#000000;stroke-miterlimit:10;}
	.st4{fill:#FF0000;stroke:#000000;stroke-miterlimit:10;}
</style>
<path class="st0" d="M349.39,65.98c4.67-2.46,9.34-4.91,14-7.37c0.59-0.31,1.48-0.55,1.67-1.03c2.67-7,8.43-4.56,13.4-4.42
	c31.6,0.89,63.18,2.34,94.8,2.58c24.13,0.18,48.25,0.5,72.37,0.85c3.43,0.05,6.6-0.49,9.49-2.36c0.39,2.01-0.65,3.38-1.85,4.89
	c-4.06,5.1-10.06,5.3-15.69,6.42c-4.15,0.83-9.92,8.6-7.67,10.78c5.82,5.63,6.52,14.39,12.95,19.66c2.45,2.01,5.53,5,4.25,8.95
	c-2.11,6.51-3.46,13.39-9.88,17.75c-7.22,4.9-14.49,9.72-20.36,16.5c-3.92,4.53-9.22,7.57-15.1,9.99
	c-5.24,2.16-10.16,3.55-15.72,3.47c-1.71-0.02-3.63,0.48-4.85,2.09c-3.41,1.18-8.07-1-10.23,3.35c-1.87,3.76-4.81,4.78-8.59,4.43
	c-2.29-0.21-4.36,0.06-5.58,2.3c-2.41,4.42-6.71,5-11.04,5.55c-1.31,0.17-2.8-0.05-3.91,0.5c-7.08,3.52-15.57,4.11-21.35,10.42
	c-1.16,1.26-3.07,2.24-4.77,2.52c-3.77,0.61-6.3,2.13-7.48,6.01c-0.52,1.72-2.48,2.38-4.37,2.9c-6.25,1.7-12.45,0.03-18.11-1.56
	c-6.55-1.83-11.77-2.48-16.28,3.32c-0.86-2.54-0.74-5.25-1.28-7.81c-0.98-4.62-1.54-10.23-6.68-11.92
	c-6.17-2.03-11.59-5.7-17.78-7.38c-3.92-1.06-6.02-3.46-7.15-6.81c-1.66-4.9-4.26-9.33-6.4-13.99c1.81-5.77,5.33-10.68,8.02-16.01
	c1.98-3.92,4.77-6.33,9.38-5.94c2.7,0.23,4.41-0.84,5.38-3.39c0.7-1.85,1.66-3.6,2.5-5.4c1.76-3.76,0.93-5.18-3.14-5.32
	c-1.5-0.05-3,0-4.5-0.01c-1.52-0.01-2.81-0.43-2.26-2.3c1.18-3.96-1.48-4.73-4.31-5.79c-6.13-2.29-7.94-9.63-3.65-14.58
	c2.14-2.47,3.29-4.82,1.4-8.05c-1.63-2.78-2.09-5.94-1.73-9.17c1.92-0.02,3.93-0.83,5.66,0.7c0.77,0.68-0.3,3.18,2.17,2.2
	c1.9-0.76,2.11-2.35,2.01-4.09C347.88,68.28,348.64,67.13,349.39,65.98z"/>
<path class="st1" d="M196.89,115.52c-3.41,0.28-4.11,1.62-1.9,4.43c0.91,1.15,1.79,2.76,0.55,4.11c-4.47,4.89-3.08,10.83-3.2,16.52
	c-6.49-0.91-7.81-0.1-9.77,5.9c-2.37,7.27-2.37,7.27-10.02,7.12c-0.83-0.01-1.67,0.05-2.49-0.05c-3.69-0.45-4.79,1.68-4.57,4.79
	c0.35,4.98,2.88,8.25,7.78,9.74c3.55,1.08,7.05,3.22,5.72,7.32c-1.05,3.2-3.19,6.43-7.24,7.6c-6.87,1.96-12.45,5.66-16.48,11.93
	c-2.66,4.13-6.41,7.47-11.67,8.68c-4.15,0.96-6.69-2.54-10.24-3.05c0.01-2.16,0.09-4.32,0.01-6.48c-0.18-4.5-2.15-5.85-6.44-4.61
	c-3.4,0.98-5.73,3.27-7.58,6.1c-2.39,3.69-5.63,5.62-10.06,4.99c-7.3-1.04-14.04,1.69-20.99,3.01c-0.84,0.15-1.4,0.33-1.6,1.43
	c-1.69,9.61-4.82,11.49-13.59,7.88c-4.04-1.66-7.7-1.71-11.23,0.94c-2.09,1.58-2.41,4.31-3.87,6.29c-2.86,3.89-4.42,9.61-9.99,10.22
	c-4.62,0.5-7.33,2.37-8.95,6.42c-5.17-2.95-9.49-6.6-12.77-11.82c-3.15-5.02-8.08-8.61-13.05-11.9c-2.82-0.87-4.82-2.03-1.92-5.07
	c1-1.05,1.28-2.44,0.98-3.72c-1.25-5.32,1.73-7.76,6-9.79c6.82-3.23,9.84-9,9.95-16.4c0.03-1.7,0.04-3.5,1.2-4.71
	c2.36-2.45,1.96-5.02,0.93-7.77c-1.95-2.63-0.75-5.75-1.29-8.62c-1.92-10.24-3.66-20.52-5.17-30.83c-0.29-2-0.53-4.74,2.34-5.83
	c0.03-0.26,0.1-0.51,0.23-0.74c0.06-1.06-0.6-2.58,1.05-2.79c1.94-0.25,1.7,1.53,2,2.72c0.28,0.05,0.54,0.13,0.79,0.26
	c0.32-0.05,0.64-0.09,0.97-0.11l0.02-0.05c0.36,0.34,0.73,0.68,1.09,1.02c1.05,1.35,2.37,2.36,3.96,3.02
	c0.82-0.02,1.54,0.17,1.98,0.94c2.16,0.39,4.96,1.95,3.41-2.74c-0.8-2.4,1.29-4.69,1.7-7.13c2.14-0.04,3.78-0.68,3.94-3.16
	c0.36,0.11,0.67,0.23,0.92,0.35c-0.25-0.13-0.56-0.25-0.92-0.36c-0.01-0.65-0.02-1.31-0.03-1.96c-4.06,0.26-2.65-2.93-3.11-4.94
	c-0.3-0.01-0.59-0.04-0.88-0.09c-2.11,0.05-4.21,0.16-6.12-1.08c-1.13-0.74-1.01-3.64-2.84-2.53c-2.22,1.34,1.24,2.46,0.87,4.02
	c-0.1,0.46,0.02,0.97,0.04,1.46c-2.71-0.47-4.59,1.69-6.99,2.2c-3.36-3.39-8-6.05-6.93-12l-0.02-0.01c0.3-0.35,0.6-0.7,0.89-1.05
	c0.7,0.01,1.39,0.01,2.09,0.02c5,3.89,10,1.78,15-0.02c0.64-0.36,1.27-0.71,1.91-1.07c4.85-3.63,10.63-5.52,16.27-6.75
	c12.31-2.68,24.08-7.08,36.17-10.37c8.44-2.28,17.04-3.93,25.57-5.86c4.79-4.41,11.03-3.94,16.81-4.68c2.43-0.31,5.27-2.5,7.87,0.51
	c0.7,0.8,2.04-0.79,2.2-3.22c0.02-0.39,0.29-0.92,0.62-1.12c4.38-2.61,7.05-6.91,10.49-10.46c0,0.01,0,0.01,0,0.02
	c0.33-0.34,0.66-0.69,1-1.03l-0.04-0.01c0.24-1.93,1.5-3.05,3.07-3.94c2.06-2.28,3.24-5.31,5.95-7.05c5.29-5.56,12.47-4,18.96-5.04
	c-0.03,0.39-0.06,0.79-0.09,1.18c1.91,5.37,4.87,10.21,7.95,14.94c3.05,4.7,3.28,9.28,0.51,14.01c-0.74,1.26-1.15,2.29-0.37,3.65
	c2.52,4.41,0.32,5.88-3.85,6.58c-1.46,0.25-4.52,0.21-3.7,2.87c2.09,6.75,3.14,13.55,2.85,20.6c-0.02,0.57,0.41,1.36,0.89,1.71
	c3.79,2.8,4.77,7.55,7.73,10.92C199.68,113.67,200.01,115.27,196.89,115.52z"/>
<path class="st2" d="M481.21,154.73c1.22-1.61,3.14-2.11,4.85-2.09c5.56,0.08,10.48-1.31,15.72-3.47c5.88-2.42,11.18-5.47,15.1-9.99
	c5.88-6.79,13.14-11.6,20.36-16.5c6.42-4.36,7.77-11.24,9.88-17.75c1.28-3.95-1.79-6.94-4.25-8.95
	c-6.42-5.27-7.13-14.03-12.95-19.66c-2.26-2.18,3.52-9.95,7.67-10.78c5.63-1.13,11.62-1.32,15.69-6.42c1.2-1.5,2.24-2.87,1.85-4.89
	c2.21-4.19,8.24-4.99,11.9-1.34c0.99,0.99,1.67,1.9,3.15,1.76c1.79,1.44,0.16,5.88,2.27,5.3c5.1-1.39,7.44,2.76,11.11,4.01
	c8.29,2.83,13.78,8.39,16.8,16.53c0.32,3.56,1.8,7.16-0.68,10.59c-0.31,0.43,0.28,1.53,0.51,2.3c2.41,8.05,5.16,16.16,6.76,24.25
	c3.86,19.59,13.51,36.68,21.27,54.59c1.88,4.33,5.43,7.88,3.02,13.17c-0.61,1.34,0.09,3.07,1.12,4.2c2.21,2.42,2.8,5.68,2.59,8.38
	c-0.37,4.91,0.63,9.56,1.35,14.26c1.21,7.86,1.64,15.29-6.05,20.43c-1.91,0.69-3.64,1.6-4.39,3.67c-0.55,0.06-1.1,0.12-1.64,0.18
	c-4.15,0.56-7.99,1.96-11.42,4.36c-11.26,7.87-15.86,20.25-21.47,31.93c-2.02-0.02-4.04-2.06-6.06-0.02
	c-3.86-7.03-9.89-9.06-17.61-8.34c-3.72,0.35-7.62-0.34-11.34-1.08c-3.06-0.6-5.29-1.84-6.43-5.78c-1.08-3.7-0.53-8.35-4.24-11.19
	c-3.21-2.45-4.7-5.52-4.64-9.83c0.05-3.73-1.27-7.47-2-11.21c-0.65-3.35-2.06-4.52-5.44-2.5c-3.88,2.31-6.09,0.9-6.32-3.65
	c-0.03-0.5,0-1,0.02-1.5c0.06-1.55,0.01-3.12-1.64-3.85c-1.52-0.67-2.33,0.53-3.35,1.45c-2.59,2.35-6.26,3.51-8.44,0.75
	c-4.36-5.52-8.31-11.52-11.33-17.84c-1.16-2.44-1.61-4.36-4.43-4.87c-3.93-0.7-6.08-3.18-7.91-6.73
	C484.99,176.54,485.12,165.08,481.21,154.73z"/>
<path class="st3" d="M352.34,110.51c-1.5-0.05-3,0.01-4.5,0c-1.52-0.01-2.81-0.44-2.26-2.31c1.18-3.96-1.48-4.73-4.31-5.79
	c-6.13-2.29-7.94-9.63-3.65-14.57c2.14-2.47,3.29-4.83,1.4-8.05c-1.62-2.78-2.08-5.94-1.73-9.17l0.03-2.1
	c-0.1-0.31-0.21-0.63-0.31-0.95c-2.12-0.46-1.71-1.97-1.41-3.43c0.04-0.4,0.07-0.81,0.1-1.21c1.16-0.15,2.32-0.29,3.48-0.44
	c0.62-0.07,1.23-0.15,1.85-0.22c0.98-0.82,2.12-0.74,3.28-0.62c0.65-0.05,1.31-0.11,1.96-0.16h-0.1c1.21-1.88,4.25-1.89,4.88-5.16
	c-5.29,1.66-10.24,3.4-15.5,3.45c-1.46,0.55-2.91,1.09-4.37,1.64l0.02-0.03c-0.26,0.25-0.52,0.46-0.79,0.63
	c-0.27,0.18-0.54,0.32-0.81,0.42c-1.68,0.67-3.45,0.15-5.24-0.53c-0.77,0.12-1.54,0.24-2.31,0.36l-0.29,0.1l-0.26-0.14
	c-0.73-0.18-1.45-0.35-2.17-0.52c-0.44,0.66-0.8,0.52-1.11-0.1c-1,0.07-2,0.15-3,0.23c-1.94-0.7-3.86-1.54-6-1.44l-0.43-0.03
	c-0.11-0.3-0.27-0.58-0.48-0.84c-0.02-0.3-0.04-0.61-0.07-0.91c-4.44-2.07-7.56-5.22-9.91-9.68c-2.86-5.44-0.97-12.18-5.37-17.09
	c-2.9-3.23-2.78-7.94-5.15-11.55c-0.55-0.84-0.72-3.28,2.69-3.31c3.37,2.46,7.78,5.18,10.28,6.17c1.81,1.18,3.47,2.27,3.63,2.42
	c0.96,1.99,1.93,3.98,2.89,5.97c0.35,1.99,1.41,3.27,3.99,3.54c-0.29-4.44-2.6-7.38-5.88-9.78c-0.49-0.68-5.7-4.67-7.13-5.24
	c-2.55-1.92-5.81-4.12-8.4-5.55c-1.14-1.13-2.86-2.01-3.73-2.88c-0.22-0.01-0.44-0.03-0.66-0.06c-0.4,0.52-0.8,0.74-1.19,0
	c-0.74-0.08-1.47-0.16-2.21-0.24c-0.28-0.22-0.55-0.44-0.83-0.65c0,0-0.38-0.27-0.39-0.27c-2.05-1.23-4.35-0.52-6.52-0.79
	c-2.04,0.01-4.08,0.03-6.12,0.04c-1.3,0.17-2.6,0.34-3.9,0.51c-4.53-1.15-8.81-0.1-13.03,1.48c-0.53,0.14-1.05,0.27-1.58,0.41
	c-0.4,0.57-0.78,1.19-1.64,0.72c-2.56,0.66-5.09,1.52-7.68,1.96c-12.26,2.06-24.49,4.11-35.65,10.13
	c-6.26,3.38-10.55,10.21-18.52,10.58c-0.03,0.39-0.06,0.79-0.09,1.18c1.91,5.37,4.87,10.21,7.95,14.94
	c3.05,4.7,3.28,9.28,0.51,14.01c-0.74,1.26-1.15,2.29-0.37,3.65c2.52,4.41,0.32,5.88-3.85,6.58c-1.46,0.25-4.52,0.21-3.7,2.87
	c2.09,6.75,3.14,13.55,2.85,20.6c-0.02,0.57,0.41,1.36,0.89,1.71c3.79,2.8,4.77,7.55,7.73,10.92c1.53,1.74,1.86,3.34-1.26,3.59
	c-3.41,0.28-4.11,1.62-1.9,4.43c0.91,1.15,1.79,2.76,0.55,4.11c-4.47,4.89-3.08,10.83-3.2,16.52c0.37,0.55,0.84,1.05,1.08,1.65
	c3.43,8.59,10.17,11,18.75,10.34c4.23-0.32,6.15,2.59,7.42,6.09c2.81-1.96,3.5-5.12,4.54-8.08c2.24-6.34,3.44-7.05,9.91-5.29
	c4.39,1.19,8.23,1.8,9.13-4.34c0.22-1.51,1.52-2.54,2.89-3.26c0.87-0.47,2.25-0.63,2.61-1.34c3.33-6.42,8.72-5.29,14.35-4.5
	c2.7,0.38,5.6-0.39,8.36-0.92c1.67-0.31,3.08-0.14,4.01,1.19c2.02,2.87,5.02,3.55,8.17,4.02c0.81,0.12,1.64,0.24,2.44,0.42
	c5.47,1.21,10.6,4.88,16.67,1.32c1.37-0.81,4.28,0.46,5.73,2.27c5.79,7.26,13.19,8.82,21.8,6.42c1.81-5.77,5.32-10.69,8.02-16.01
	c1.98-3.92,4.77-6.33,9.37-5.94c2.71,0.24,4.42-0.84,5.39-3.39c0.7-1.85,1.66-3.61,2.5-5.4
	C357.24,112.07,356.41,110.65,352.34,110.51z"/>
<path class="st4" d="M487.26,581.49c-1.31-0.03-2.62-0.07-3.93-0.1c-0.65-3.55-3.44-2.89-5.83-2.91c-2.63-0.02-3.3,1.69-3.24,3.94
	c0,0-0.01,0.01-0.01,0.01c-1.42-0.3-2.87-0.5-4.26-0.92c-6.35-1.92-6.37-1.88-7.1,4.54c-0.13,1.16-1.09,2.24-1.67,3.35
	c-2.08,1.59-3.78,3.53-5.01,5.85c-1,0.07-2,0.14-2.99,0.21c-0.23-2.22-2.18-3.28-3.7-3.55c-3.05-0.55-4.97-2.18-6.89-4.38
	c-3.3-3.78-7.04-5.79-12.06-2.49c-1.2,0.79-3.42,0.85-4.83,0.33c-4.17-1.53-8.16,0.52-12.23,0.14c-1.44-0.13-2.68,0.52-3.02,2.04
	c-0.48,2.17-2.04,2.49-3.89,3.14c-5.3,1.87-9.06,5.7-10.15,11.23c-1.25,6.34-1.82,6.83-7.12,3.21c-3.92-2.68-5.72-2.15-7.25,2.09
	c-1.62,0.16-3.23,0.33-4.85,0.5c-4.61-0.35-4.16-3.04-2.82-6.13c4.45-2.68,1.42-6.49,1.37-9.78c-0.06-3.63-1.29-6.46-5.94-5.4
	c-1.33,0.3-3.19-0.17-3.61-1.18c-1.81-4.38-7.23-5.42-8.79-9.91c0.38-5.21-1.56-9.21-6.16-11.83c-2.11-2.1-1.66-4.43-0.61-6.82
	c1.06-2.41,0.33-3.89-2.31-4.24c-3.3-0.43-5.36-2.41-6.83-5.21c-2.45-4.68-8.19-7.32-8.34-13.44c-0.01-0.28-0.28-0.59-0.5-0.83
	c-3.73-3.96-3.73-7.03,0.02-11.41c3.88-4.53,7.37-9.48,11.74-13.48c3.9-3.57,3.92-6.29,0.33-9.68c-1.92-1.8-2.02-4,0.76-4.38
	c4.83-0.66,6.37-4.32,8.3-7.72c1.12-1.96,1.99-3.46,4.49-1.53c1.55,1.19,3.88,1.34,5.06-0.17c3.21-4.11,7.44-4.19,12.05-4.32
	c3.14-0.09,5.87-2.16,8.47-3.98c2.22-1.56,2.88-3.55,1.48-6.02c7.76-1.32,13.22,4.25,19.7,6.69c4.11,1.54,5.91,5.52,6.77,9.34
	c1.08,4.78,3.94,8.4,6.49,12.22c2.84,4.25,12.36,5.5,15.18,2.22c2.67-3.1,5.22-6.3,7.69-9.56c0.62-0.82,0.78-1.6,2.17-1.24
	c3.36,0.87,6.23-0.73,9.27-1.93c4.22-1.66,8.68-4.16,12.8-4.24c3.4-0.06,4.5-1.25,6.19-3.15c1.42-1.6,3.11-2.96,4.68-4.42
	c0.65,6.32-0.76,12.19-3.85,17.7c-1.02,1.81-1.42,3.77-1.07,5.78c1.31,7.53,2.19,15.07,1.95,22.75c-0.09,2.83,0.66,5.6,3.69,6.98
	c5.36,2.44,5.54,3.55,1.25,7.48c-5.25,4.8-5.11,5.5,1.65,8.33c6.06,2.53,9.94,7.19,10.15,13.55c0.24,7.26,1.78,14.07,4.09,20.82
	C492.27,581.67,489.14,579.29,487.26,581.49z"/>
<path class="st2" d="M39.07,236.75c1.62-4.05,4.33-5.92,8.95-6.42c5.57-0.61,7.13-6.33,9.99-10.22c1.46-1.98,1.78-4.71,3.87-6.29
	c3.52-2.65,7.19-2.6,11.23-0.94c8.77,3.61,11.9,1.73,13.59-7.88c0.19-1.1,0.76-1.27,1.6-1.43c6.95-1.31,13.68-4.05,20.99-3
	c4.42,0.63,7.66-1.3,10.06-4.99c1.84-2.83,4.17-5.12,7.58-6.11c4.29-1.24,6.26,0.11,6.44,4.62c0.08,2.16,0,4.32,0,6.48
	c-0.66,2.04-2.05,4.15-1.85,6.1c0.49,4.78-1.37,8.4-4.48,11.56c-1.67,1.7-1.06,2.86-0.23,4.74c2.05,4.62,0.73,7.29-4.35,8.27
	c-3.1,0.6-3.85,2.13-4.55,4.83c-1.09,4.19,0.22,7.88,1.4,11.65c1.26,4.05,2.04,8.33,0.39,12.15c-0.84,1.94-1.14,3.17-0.24,4.87
	c2.68,5.11,2.22,10.24,0.04,15.37c-1.92,4.53-3.73,9.77-1.79,13.99c2.51,5.46,6.13,11.82,11.05,14.36c4.7,2.44,4.14,4.24,3.69,7.89
	c-0.6,4.88,3.04,7.94,7.19,6.52c4.36-1.5,7.39,0.17,8.54,4.77c0.48,1.92,0.8,3.88,1.2,5.82c-1.07,1.48-2.2,2.91-3.19,4.43
	c-2.15,3.3-5.36,5.78-9.02,5.04c-3.03-0.61-4.32-4.09-4.86-7.44c-0.49-3.04-10.35-6.42-11.59-3.94c-2.69,5.35-9.31,6.82-11.32,12.72
	c-1.56,4.58-4.66,8.3-7.98,11.91c-4.98,5.42-7.4,5.96-13.33,1.59c-3.97-2.92-7.69-2.46-10.77,1.42c-0.72,0.9-1.26,1.96-1.8,2.98
	c-1.54,2.95-3.31,4.18-5.92,1.01c-1.28-1.56-3.01-2.35-4.87-1.29c-3.02,1.73-6.63,2.22-9.36,4.52c-0.59-0.35-1.17-0.71-1.76-1.06
	c-0.14-1.62-0.28-3.24-0.42-4.86c-0.27-0.29-0.54-0.58-0.82-0.87c-2.31-1.08-4.63-2.16-6.94-3.23c-0.96-1.45-2.34-2.03-4.04-1.94
	c-2.42-1.15-4.21-2.62-2.88-5.68c2.08-2.09,3.64-4.72,2.76-7.53c-1.94-6.15-5.73-11.47-8.58-17.22c-2.52-2.44-0.83-4.44,0.68-6.46
	c0.42-0.32,0.85-0.64,1.27-0.97c0.29-0.26,0.58-0.52,0.86-0.79c0.34-0.41,0.68-0.81,1.02-1.22c0,0-0.04,0.05-0.04,0.05
	c0.34-0.35,0.69-0.7,1.03-1.05c0,0,0.01,0.06,0,0.06c1.13-0.28,1.7-0.99,1.7-2.16c0.11-0.55,0.22-1.09,0.32-1.64
	c1.01-1.69,1.65-3.44,0.88-5.42c-0.17-1.8,0.73-3.15,1.84-4.42c1.41-3.02,5.41-6.29-0.79-8.62c0,0,0.03,0.05,0.03,0.05
	c0.01-0.35-0.1-0.65-0.33-0.91c0.02-1.35,0.04-2.69,0.07-4.04c3.54-8.75,2.78-11.3-3.85-12.96c-3.24-3.03-1.65-7.78-4.11-11.21
	c-3.85-5.37,3.35-6.28,4.29-9.77C40.22,247.49,40.2,242.17,39.07,236.75z"/>
<path class="st1" d="M385.36,470.27c1.39,2.47,0.74,4.46-1.48,6.02c-2.6,1.82-5.33,3.89-8.47,3.98c-4.61,0.13-8.84,0.21-12.05,4.32
	c-1.18,1.51-3.51,1.36-5.06,0.17c-2.5-1.92-3.37-0.43-4.49,1.53c-1.93,3.4-3.47,7.06-8.3,7.72c-2.78,0.38-2.68,2.58-0.76,4.38
	c3.6,3.39,3.57,6.1-0.33,9.68c-4.36,4-7.86,8.95-11.74,13.48c-3.75,4.37-3.75,7.45-0.02,11.41c0.22,0.23,0.5,0.54,0.5,0.83
	c0.15,6.12,5.89,8.76,8.34,13.44c1.47,2.8,3.53,4.78,6.83,5.21c2.65,0.35,3.37,1.83,2.31,4.24c-1.05,2.39-1.5,4.72,0.61,6.82
	c-2.78,2.96-4.76,7.13-9.19,7.82c-3.78,0.59-5.92,2.9-6.45,5.97c-0.81,4.67-3.55,7.21-7.34,9.19c-0.35-0.01-0.69-0.01-1.04-0.02
	c-2.33,0.32-4.65,0.64-6.98,0.96c-0.35-0.3-0.69-0.61-1.04-0.91c-0.32-0.36-0.64-0.73-0.97-1.09c0,0-0.06,0.03-0.06,0.03
	c0.01-1.66,0.02-3.32,0.03-4.98c0.56-3.85-0.6-6.26-4.98-6.01c-1.3-0.06-2.6-0.11-3.89-0.17c0-0.62-0.01-1.23-0.01-1.85
	c0.99-3.33-0.58-6.31-1.33-9.4c-0.7-2.86-1.52-4.93-5.04-6.31c-2.54-1-6.56-1.6-7.76-5.29c0.13-2.24,0.05-4.42-1.98-5.94
	c0,0-0.04-0.07-0.04-0.07c0.02-0.99-0.01-1.99,0.06-2.98c0.27-3.68,0.11-7.45-1.6-10.63c-1.39-2.6-4.57,0.93-6.32-0.6
	c-4.4-3.85-9.25-2.36-14.09-1.76c-0.03-0.31-0.06-0.63-0.08-0.95c-4.44-5.2-10.79-7.89-15.96-12.13c0.92-5.45,3.07-9.14,9.37-10.41
	c11.38-2.3,14.99-6.96,14.58-16.79c-0.23-5.56-1.18-10.6,1.56-16.52c2.06-4.43,3.56-5.24,7.45-5.2c1.65,0.02,3.94,1.07,4.85-1.22
	c0.82-2.05-0.9-3.36-2.21-4.63c-6.28-6.07-5.01-19.62,2.39-24.58c1.82-1.22,3.42-2.69,2.7-4.81c-1.64-4.84,0.61-9.08,1.51-13.54
	c1.32-2.11,3.13-3.22,5.71-3.4c3.29-0.23,6.8-0.23,9.78-1.42c3.03-1.21,4.83-1.01,7.54,0.94c5.41,3.88,11.56,7.64,18.43,4.92
	c3.97-1.57,6.22-0.4,8.86,1.78c2.65,2.19,3.68,5.5,5.65,8.16c1.29,1.75,2.49,4,4.94,3.68c5.1-0.69,9.44,1.25,13.84,3.21
	c0.25,0.21,0.47,0.48,0.75,0.63c1.73,0.93,4.85-1,5.37,2.16c0.49,2.97-2.64,2.26-4.12,3.26c-2.79,1.89-3.01,6.09-0.17,6.59
	c6.33,1.13,8.01,6.31,10.86,10.73c-0.37,0.27-0.77,0.52-1.12,0.83c-2.25,2.03-6.47,3.19-5.79,6.7c0.56,2.85,4.71,1.3,6.99,2.52
	C385.1,470.06,385.23,470.17,385.36,470.27z"/>
<path class="st1" d="M295.93,432.24c0.71,2.12-0.88,3.59-2.7,4.81c-7.4,4.95-8.67,18.51-2.39,24.57c1.31,1.27,3.02,2.58,2.21,4.63
	c-0.92,2.29-3.21,1.24-4.86,1.22c-3.89-0.04-5.4,0.77-7.45,5.2c-2.75,5.91-1.8,10.96-1.57,16.52c0.41,9.83-3.19,14.49-14.58,16.79
	c-6.29,1.28-8.45,4.97-9.37,10.42c-2.46,1.17,1.46,4.74-1.2,4.8c-4.07,0.09-6.76,3.61-10.71,3.37c-2.45-1.96-5.26-3.74-6.18-6.91
	c-1.47-5.04-4.18-8.29-9.83-8.16c-0.5-1.98-2.42-3.56-1.62-5.89c0.55-0.11,1.11-0.22,1.66-0.32c3.92,0.17,7.29-0.67,8.87-4.82
	c-0.82-0.83-1.8-1.6-1.11-2.99c0.01-1.02,0.02-2.03,0.03-3.05c-0.88-0.35-1.74-1.24-2.72-0.42c-3.1,2.59-6.57,2.35-10.15,1.45
	c-1.08-0.08-2.16-0.17-3.24-0.27c-0.26-0.05-0.52-0.01-0.75,0.13c-0.32,1.02-0.64,2.04-0.96,3.06c-3.66-0.49-6.59-2.78-9.97-3.98
	c-0.06-2.2,0.54-4.27-3.22-4.56c-1.91-0.14-5.1-1.32-5.8-4.39c-0.69-1.22-1.89-0.99-2.98-1.05c-0.71-1.13-1.86-0.96-2.94-0.99
	c-0.37-1.12-0.75-2.25-1.12-3.37c-0.67-0.11-1.35-0.23-2.02-0.34c-0.8,0.83-1.41,0.7-1.83-0.36l-0.01-0.02
	c-0.56-2.25-3.04-1.6-4.28-2.82c1.04-2.44,2.25-4.82,3.09-7.33c1.12-3.32,2.88-6.78,6.13-7.31c4.47-0.71,5.54-3.56,6.68-6.86
	c0.81-2.35,1.58-4.65,2.83-6.86c7.73-13.56,18.17-25.6,22.8-40.92c0.73-2.41,2.92-3.91,5.86-3.78c2.23,0.09,4.37-0.36,5.02-3.05
	c3.03,1.08,5.62,2.02,6.58,6.05c0.79,3.33,4.22,4.75,8.02,3.62c4.59-1.36,8.91-3.33,13.11-5.6c1.35,0.57,3.02,0.83,4.02,1.78
	c5.07,4.85,11.66,4.76,17.79,5.04c6.07,0.27,11,3.25,12.37,9.42C296.54,423.16,294.29,427.4,295.93,432.24z"/>
<path class="st4" d="M636.04,476.7c-0.58,4.18-3.82,6.54-6.52,9.11c-13.15,12.54-24.44,26.54-34.06,41.93
	c-1.92,3.07-3.69,6.25-5.6,9.3c-4.49,7.12-9.71,13.76-14.4,20.78c-3.94,5.88-3.38,11.06-0.51,16.72c-0.2,4.25,4.06,6.84,3.92,11.32
	c-0.1,2.85,0.61,5.83,0.48,8.78c-0.14,0.03-0.28,0.07-0.41,0.11c0.1,0.2,0.21,0.4,0.32,0.6c-0.07,0.67-0.13,1.33-0.19,1.99h-0.39
	l-0.37,0.06c-0.33,1.58-0.63,3.17-0.98,4.74c-0.21,0.93-0.78,1.92,0.8,2.19c2.57,0.44,3.89,2.87,6.11,3.87
	c2.41,1.98,5.88,3.23,4.5,7.6c-0.27,0.85,0.6,2.19,1.88,2.6c-0.6,3.11-1.74,4.42-4.16,1.21c-1.58-2.11-3.69-2.54-6.12-2.01
	c-1.4,0.02-2.8,0.03-4.2,0.05c-1.29-0.04-2.58-0.07-3.87-0.11c-0.64-2.51-1.79-3.69-4.84-3.7c-5.16-0.02-10.76,0.59-14.7-4.13
	c-0.11-0.13-0.3-0.31-0.4-0.28c-5.25,1.51-8.24-3.27-12.52-4.47c-2.06-0.58-4.04-1.67-6.14-1.91c-3.55-0.42-4.86-2.33-4.74-5.65
	c-0.27-1.31-0.54-2.63-0.81-3.95c-2.41-4.09-6.8-5.67-10.43-8.21c-0.14-0.1-0.33-0.27-0.43-0.23c-6.81,2.45-10.69-3.93-16.21-5.35
	c-1.31-0.34-2.64-0.13-3.84,0.59c-1.01-0.22-2.02-0.44-3.03-0.65c-2.32-6.76-3.86-13.57-4.1-20.83c-0.2-6.36-4.09-11.02-10.15-13.55
	c-6.76-2.83-6.89-3.53-1.65-8.33c4.3-3.93,4.12-5.04-1.25-7.48c-3.03-1.38-3.78-4.15-3.69-6.99c0.23-7.67-0.64-15.21-1.95-22.74
	c-0.35-2.01,0.06-3.97,1.07-5.78c3.09-5.51,4.5-11.38,3.85-17.7c1.65-3.49,6.86-2.68,7.92-4.78c2.74-5.46,7.81-6.48,12.28-8.89
	c1.91-1.03,3.01-3.05,3.6-5.19c1.37-5.06,3.86-9.31,8.52-12.06c1.49-0.88,2.2-2.22,2.7-3.94c0.94-3.25,0.82-6.53,0.95-9.82
	c1.08,0.39,2.42,0.5,3.2,1.22c4.53,4.12,8.99,5.06,14.26,1.02c3.03-2.31,6.04-0.13,8.66,1.62c2.98,1.98,0.67,4.09-0.17,6.07
	c-1.96,4.67-1.41,5.88,3.43,6.9c3.57,0.76,7.27,1.1,10.7,2.25c6.2,2.06,12.67,4.03,14.6,11.61c0.51,2.01,1.49,3.96-1.92,4.2
	c-4.57,0.32-5.35,3.68-4.76,7.16c0.7,4.12,3.9,4.37,7.37,3.59c2.29-0.51,4.5-1.83,7.86-0.96c-4.02,2.4-2.4,3.22,0.21,4.01
	c6.04,1.81,12.21,1.06,18.34,1.29c6.21,0.23,10.87-2.32,14.56-7.15c6.12-8.01,12.97-8.44,20.48-1.3
	C631.09,474.94,633.28,476.32,636.04,476.7z"/>
<path class="st4" d="M481.21,154.73c3.91,10.35,3.78,21.81,8.95,31.87c1.82,3.55,3.97,6.03,7.91,6.73c2.83,0.5,3.27,2.43,4.43,4.87
	c3.02,6.33,6.98,12.33,11.33,17.84c2.18,2.76,5.85,1.6,8.44-0.75c1.01-0.92,1.82-2.12,3.35-1.45c1.65,0.72,1.7,2.3,1.64,3.85
	c-0.02,0.5-0.04,1-0.02,1.5c0.23,4.54,2.44,5.96,6.32,3.65c3.38-2.02,4.79-0.85,5.44,2.5c0.73,3.74,2.05,7.48,2,11.21
	c-0.06,4.31,1.44,7.38,4.64,9.83c3.71,2.84,3.16,7.49,4.24,11.19c1.15,3.93,3.38,5.18,6.43,5.78c3.72,0.73,7.62,1.43,11.34,1.08
	c7.71-0.73,13.74,1.31,17.6,8.33c0.23,2.13-0.77,3.76-1.86,5.5c-1.84,2.95-3.65,5.98-4.98,9.18c-2.84,6.8-3.79,7.27-10.33,4.56
	c-3.37-1.4-6.79-3.24-8.67,2.42c-0.75,2.26-3.1,4.44-6.29,4.05c-4.73-0.58-8.88,0.26-11.95,4.36c-0.53,0.71-1.86,1.42-2.62,1.25
	c-5.72-1.28-10.9,2.25-16.63,1.6c-2.96-0.33-6.28,0.76-9.15,1.92c-2.57,1.04-6.14,2.56-4.73,6.29c1.58,4.17,2.21,8.75,4.38,12.55
	c1.61,2.82,1.46,4.36-0.86,6.22c-2.28,1.82-3.07,3.71-0.58,6.2c2.06,2.06,1.54,3.97-0.9,5.77c-3.03,2.23-6.06,2.17-9.43,1.2
	c-1.63-0.47-3.82-1.23-4.34,1.59c-0.41,2.26,0.59,4.07,2.73,4.72c1.54,0.47,3.29,0.29,4.94,0.34c1.52,0.04,3.67-0.07,3.77,1.62
	c0.3,5.06,6.07,9.72,1.13,15.21c-1.04,1.16-0.99,2.88,0.03,4.2c1.87,2.43,1.55,4.96,0.57,7.55c-3.33,8.77-4.64,17.55-0.37,26.42
	c-1.15,0.09-2.37-0.03-3.45,0.31c-10.12,3.13-19.96,4.44-30.72,1.38c-5.87-1.67-9-4.48-10.81-9.28c-1.71-4.52-2.85-3.7-5.36-0.69
	c-5.08,6.11-18.44,6.27-23.72,0.4c-1.94-2.16-4.38-3.55-6.72-5.11c-3.11-2.06-6.97-3.23-8.03-7.59c-0.42-1.73-2.43-1.44-3.82-1.87
	c-0.81-3.76,0.27-6.82,3.12-9.43c2.07-1.89,4.04-5.59,2.18-6.95c-4.5-3.29-3.52-8.27-5.4-12.26c-1.38-2.91-1.78-6.23,0.67-8.31
	c2.04-1.74,5.02-0.7,7.55,0.45c2.09,0.96,4.75,2.15,6.26-0.28c1.27-2.03,0.44-4.48-1.5-6.3c-1.86-1.74-3.34-3.69-2.95-6.52
	c1.05-7.75-7.84-16.31-15.52-14.6c-4.1,0.92-6.33,0.23-7.11-4.16c-0.24-1.33-1.56-2.49-2.45-3.69c-0.73-0.99-1.03-1.82-0.46-3.15
	c2.82-6.6,2.21-8.42-4.55-10.07c-3.78-0.92-4.92-2.98-4.97-6.24c-0.03-2.23-0.77-4.02-2.79-4.87c-2.72-1.15-4.69-2.93-6.25-5.44
	c-1.12-1.82-2.58-1.69-4.66-0.65c-6.67,3.33-13.54,6.59-20.43,0.23c-1.49-1.37-3.33-2.09-5.38-2.39c-4.03-0.6-7.51-2.47-10.58-5.12
	c0.46-3.3,1.44-6.46,3.13-9.32c0.93-1.57,0.98-3.08,0.71-4.76c-1.32-8.23,3.23-14.79,6.68-21.48c0.88-1.72,2-3.21,1.13-4.66
	c-2.85-4.74-2.59-9.61-1.66-14.75c0.48-2.7,5.71-9.78,8.28-9.37c4.44,0.72,4.05-2.16,3.7-4.42c-0.9-5.73,1.49-9.46,6.29-12.08
	c4.51-5.79,9.74-5.15,16.28-3.32c5.66,1.58,11.86,3.25,18.11,1.56c1.89-0.51,3.85-1.17,4.37-2.9c1.18-3.88,3.72-5.4,7.48-6.01
	c1.7-0.28,3.61-1.25,4.77-2.52c5.78-6.31,14.27-6.9,21.35-10.42c1.11-0.55,2.6-0.33,3.91-0.5c4.33-0.55,8.64-1.14,11.04-5.55
	c1.22-2.24,3.3-2.51,5.58-2.3c3.78,0.34,6.72-0.67,8.59-4.43C473.15,153.73,477.81,155.91,481.21,154.73z"/>
<path class="st1" d="M369.48,194.47c-4.8,2.62-7.18,6.35-6.29,12.08c0.36,2.27,0.74,5.14-3.7,4.42c-2.57-0.41-7.8,6.67-8.28,9.37
	c-0.92,5.14-1.19,10,1.66,14.75c0.87,1.45-0.24,2.95-1.13,4.66c-3.45,6.69-8,13.26-6.68,21.48c0.27,1.68,0.22,3.18-0.71,4.76
	c-1.68,2.86-2.67,6.02-3.13,9.32c-3.76-0.53-5.64,4.38-9.75,3.24c-2.95-0.82-5.7,0.41-8.21,2c-3.56-4.06-7.57-4.92-12.3-1.94
	c-1.53,0.96-3.83,1.92-4.88-0.16c-3.02-5.97-9.47-8.27-13.44-13.17c-1.1-1.35-2.85-2.48-4.36-1.19c-3.38,2.87-4.65,0.63-5.8-2.05
	c-1.06-2.47-2.03-3.77-4.54-1.15c-3.36,3.51-8.3,3.79-11.79,0.54c-5.43-5.05-13.02-6.95-17.95-12.74c-1.21-1.43-3.38-1.92-5.48-2.09
	c-3.47-0.29-7.04-0.53-8.09-5.03c-0.29-1.24-1.53-2.35-3.13-1.59c-5.86,2.78-6.54-2.64-8.62-5.55c-2.25-3.15,0.35-4.23,2.68-5.43
	c0.55-0.28,0.68-1.44,0.93-2.22c2.37-7.42-0.4-13.94-7.77-17.13c-2.96-1.28-3.86-2.32-2.23-5.4c2.22-4.19,3.19-8.57,0.83-13.29
	c-0.99-1.99-1.31-4.73,1.43-6.11c4.54-2.29,3.77-6.52,1.25-8.42c-8.1-6.11-4.92-11.75-0.44-17.75c2.81-1.96,3.5-5.12,4.54-8.08
	c2.24-6.34,3.44-7.06,9.91-5.3c4.39,1.19,8.23,1.81,9.13-4.34c0.22-1.5,1.53-2.53,2.89-3.26c0.88-0.47,2.25-0.63,2.62-1.34
	c3.32-6.42,8.71-5.29,14.35-4.5c2.69,0.38,5.6-0.4,8.36-0.92c1.67-0.32,3.08-0.14,4.01,1.19c2.02,2.87,5.02,3.55,8.17,4.02
	c0.82,0.12,1.64,0.24,2.45,0.42c5.46,1.21,10.6,4.88,16.67,1.32c1.36-0.8,4.28,0.47,5.72,2.28c5.79,7.26,13.2,8.82,21.8,6.42
	c2.14,4.65,4.74,9.08,6.4,13.98c1.13,3.35,3.24,5.74,7.15,6.81c6.18,1.68,11.61,5.35,17.78,7.38c5.14,1.69,5.7,7.3,6.68,11.92
	C368.74,189.22,368.62,191.93,369.48,194.47z"/>
<path class="st0" d="M219.59,158.66c-4.48,6.01-7.66,11.64,0.44,17.75c2.52,1.9,3.29,6.14-1.25,8.42c-2.75,1.38-2.43,4.12-1.43,6.11
	c2.36,4.72,1.39,9.1-0.83,13.29c-1.63,3.08-0.72,4.12,2.23,5.4c7.37,3.19,10.14,9.72,7.77,17.13c-0.25,0.78-0.38,1.94-0.93,2.22
	c-2.34,1.2-4.93,2.28-2.68,5.43c2.07,2.91,2.76,8.32,8.62,5.55c1.6-0.76,2.84,0.35,3.13,1.59c1.05,4.5,4.61,4.75,8.09,5.03
	c2.1,0.17,4.27,0.66,5.48,2.09c4.93,5.79,12.52,7.69,17.95,12.74c3.49,3.25,8.42,2.96,11.79-0.54c2.51-2.62,3.49-1.32,4.54,1.15
	c1.15,2.68,2.42,4.92,5.8,2.05c1.51-1.28,3.26-0.16,4.36,1.19c3.97,4.9,10.41,7.21,13.44,13.17c1.05,2.08,3.35,1.12,4.88,0.16
	c4.73-2.98,8.74-2.13,12.3,1.93c2.41,8.85,2.27,10.3-3.02,12.28c-3.74,1.4-4.91,3.51-5.23,7.31c-0.51,5.95-3.49,9.51-7.97,8.98
	c-5.55-0.66-5.49,2.55-5.77,6.15c-0.2,2.58,0.89,4.86,1.46,7.27c1.39,5.85-3.1,10.72-8.8,9.67c-5.99-1.1-8.31,0.24-10.92,5.81
	c-3.3,7.06-4.67,14.34-3.86,22.14c0.35,3.4,0.55,6.91-0.67,10.36c-0.78,2.18-2.51,4.17-4.11,3.63c-5.09-1.73-7.3,0.74-9.11,4.76
	c-0.29,0.64-1.24,1.07-1.96,1.42c-5.81,2.88-6.72,7.18-1.95,11.41c3.69,3.27,3.61,6.72,1.9,10.7c-4.19,2.28-8.51,4.25-13.1,5.61
	c-3.8,1.13-7.23-0.29-8.02-3.62c-0.96-4.03-3.55-4.97-6.59-6.05c-0.04-5.31-0.48-10.66-0.01-15.92c0.42-4.69-0.18-5.91-4.85-6.02
	c-2.64-0.06-5.92,1.41-7.32-2.33c-1.24-3.35-1.84-6.53,0.97-9.76c2.43-2.79,2.79-5.64-1.27-8.14c-4.87-3-10.05-4.2-15.58-4.51
	c-3.19-0.18-5.95,0.44-6.96,4.12c-0.36,1.31-1.29,2.13-2.78,2.53c-11.59,3.15-22.55-0.53-29.44-10.12
	c-0.94-1.31-1.88-2.98-1.93-4.52c-0.14-4.28-2.69-6.26-5.94-8.44c-3.61-2.43-7.31-1.71-11.06-1.83c-0.4-1.94-0.72-3.9-1.2-5.82
	c-1.14-4.6-4.18-6.26-8.54-4.77c-4.15,1.42-7.78-1.64-7.19-6.52c0.45-3.65,1.01-5.45-3.69-7.89c-4.92-2.55-8.54-8.9-11.05-14.36
	c-1.94-4.22-0.13-9.46,1.79-13.99c2.18-5.12,2.64-10.25-0.04-15.37c-0.89-1.7-0.6-2.93,0.24-4.87c1.65-3.82,0.87-8.1-0.39-12.15
	c-1.18-3.77-2.48-7.46-1.4-11.65c0.7-2.71,1.45-4.23,4.55-4.83c5.08-0.98,6.4-3.64,4.35-8.27c-0.83-1.88-1.44-3.04,0.23-4.74
	c3.11-3.16,4.97-6.78,4.48-11.56c-0.2-1.95,1.18-4.06,1.85-6.1c3.55,0.51,6.08,4.01,10.24,3.05c5.25-1.21,9.01-4.55,11.66-8.68
	c4.03-6.27,9.61-9.97,16.48-11.94c4.06-1.16,6.2-4.39,7.24-7.59c1.34-4.1-2.16-6.24-5.71-7.32c-4.9-1.49-7.43-4.77-7.78-9.74
	c-0.22-3.11,0.88-5.24,4.57-4.79c0.82,0.1,1.66,0.04,2.49,0.05c7.65,0.15,7.65,0.15,10.02-7.12c1.95-6,3.28-6.8,9.77-5.9
	c0.37,0.55,0.84,1.06,1.08,1.66c3.43,8.59,10.17,11,18.75,10.34C216.4,152.25,218.32,155.16,219.59,158.66z"/>
<path class="st1" d="M509.13,407.51c-4.27-8.87-2.96-17.66,0.37-26.42c0.99-2.59,1.31-5.12-0.57-7.55c-1.02-1.32-1.08-3.05-0.03-4.2
	c4.94-5.49-0.83-10.15-1.13-15.21c-0.1-1.69-2.26-1.57-3.77-1.62c-1.66-0.05-3.41,0.13-4.94-0.34c-2.14-0.66-3.14-2.46-2.73-4.72
	c0.51-2.82,2.71-2.06,4.34-1.59c3.38,0.97,6.4,1.03,9.43-1.2c2.44-1.8,2.96-3.71,0.9-5.77c-2.5-2.5-1.7-4.39,0.58-6.2
	c2.32-1.85,2.47-3.4,0.86-6.22c-2.17-3.8-2.8-8.38-4.38-12.55c-1.42-3.73,2.15-5.24,4.73-6.29c2.87-1.16,6.19-2.25,9.15-1.92
	c5.74,0.65,10.91-2.88,16.63-1.6c0.76,0.17,2.09-0.54,2.62-1.25c3.07-4.1,7.22-4.94,11.95-4.36c3.19,0.39,5.54-1.8,6.29-4.05
	c1.88-5.67,5.31-3.82,8.67-2.42c6.53,2.71,7.49,2.24,10.33-4.56c1.33-3.2,3.14-6.23,4.98-9.18c1.09-1.74,2.09-3.38,1.86-5.5
	c2.03-2.04,4.04,0.01,6.06,0.02c1.52,5.71,5.18,7.92,10.95,6.68c0.31,0.01,0.62,0.02,0.93,0.03c0.37,2.33,2.13,2.73,4.05,2.91
	c0,0,0.04,0.06,0.04,0.06c2,0.98,4.01,1.97,6.01,2.95c0.65,0.68,1.3,1.37,1.95,2.05c1.32,3.11,4.74,2.48,6.99,3.94
	c0,0,0.04,0.08,0.04,0.08c0.31,0.33,0.63,0.65,0.95,0.98c0.04,0.33,0.08,0.65,0.1,0.98c-0.08,0.83,0.04,1.56,0.89,1.97
	c0,0,0.07,0.11,0.06,0.11c0.89,8.75-3.84,17.26-1.14,26.11c0.12,0.41-0.03,1.13-0.33,1.4c-5.25,4.78-3.69,11.1-3.45,16.86
	c0.29,7.06,3.66,12.79,9.83,16.62c0.01,0.65,0.01,1.31,0.02,1.96c0.51,4.53,0.67,8.95-1.89,13.11c-0.61,0.99-0.13,2.94,1.32,3.36
	c2.09,0.61,2.52,2.37,3.49,3.83c1.56,2.32,2.72,5.47,4.92,6.68c6.86,3.76,7.71,10.87,10.68,16.86c2.64,5.33,3.88,12.06,11.47,13.16
	c0.09,0.86,0.48,1.48,1.17,2.06c2.94,2.47,1.41,3.43-1.39,3.94c-6.65,1.2-7.64,3.92-3.14,9.06c2.55,2.9,3.71,6.94,7.36,8.93
	c0.3,4.11-0.6,8.28,0.59,12.37c0.16,0.56,0.06,1.59-0.31,1.85c-4.17,3-4.85,7.73-6.65,12.05c-1.68,4.03-6.2,3.77-10.05,3.73
	c-5.25-0.05-9.58,1.24-10.75,7.24c-2.76-0.37-4.95-1.76-6.94-3.65c-7.51-7.14-14.36-6.71-20.48,1.3c-3.69,4.83-8.35,7.37-14.56,7.14
	c-6.13-0.23-12.3,0.52-18.33-1.29c-2.62-0.79-4.24-1.61-0.21-4.01c-3.36-0.87-5.57,0.45-7.86,0.96c-3.48,0.77-6.67,0.52-7.37-3.59
	c-0.59-3.48,0.18-6.84,4.76-7.16c3.41-0.24,2.43-2.19,1.92-4.2c-1.93-7.58-8.4-9.55-14.6-11.61c-3.44-1.14-7.13-1.49-10.7-2.24
	c-4.83-1.02-5.39-2.24-3.42-6.91c0.83-1.97,3.15-4.09,0.17-6.07c-2.62-1.75-5.64-3.93-8.66-1.61c-5.27,4.03-9.72,3.09-14.26-1.03
	c-0.79-0.71-2.12-0.83-3.2-1.22c-1.13-3.63-2.96-7.22-3.2-10.9C508.81,416.3,507.77,411.86,509.13,407.51z"/>
<path class="st4" d="M509.13,407.51c-1.35,4.35-0.32,8.79-0.04,13.11c0.23,3.69,2.07,7.27,3.2,10.9c-0.13,3.29-0.01,6.57-0.95,9.82
	c-0.5,1.72-1.21,3.05-2.7,3.94c-4.65,2.75-7.14,7-8.52,12.06c-0.58,2.14-1.69,4.16-3.59,5.19c-4.48,2.41-9.55,3.43-12.29,8.89
	c-1.06,2.1-6.27,1.29-7.92,4.78c-1.57,1.46-3.26,2.82-4.68,4.42c-1.7,1.9-2.79,3.09-6.19,3.15c-4.12,0.07-8.58,2.58-12.8,4.24
	c-3.04,1.2-5.91,2.81-9.27,1.93c-1.39-0.36-1.55,0.42-2.17,1.24c-2.47,3.26-5.03,6.46-7.69,9.56c-2.82,3.28-12.34,2.04-15.18-2.22
	c-2.55-3.82-5.41-7.44-6.49-12.22c-0.86-3.82-2.67-7.79-6.77-9.34c-6.49-2.44-11.94-8.01-19.7-6.69c-0.13-0.1-0.26-0.21-0.41-0.29
	c-2.28-1.22-6.43,0.33-6.99-2.52c-0.69-3.51,3.53-4.66,5.79-6.7c0.34-0.31,0.75-0.56,1.12-0.83c-2.85-4.42-4.54-9.61-10.86-10.73
	c-2.85-0.51-2.63-4.7,0.17-6.59c1.48-1,4.61-0.29,4.12-3.26c-0.52-3.16-3.64-1.23-5.37-2.16c-0.28-0.15-0.5-0.41-0.75-0.63
	c4.06-4.33,8.08-8.33,6.44-15.45c-0.79-3.41,1.95-4.37,5.23-2.24c1.39,0.9,2.67,1.96,4.03,2.91c3.02,2.13,4.04,0.56,4.44-2.36
	c0.42-3.08-0.69-5.36-2.94-7.49c-3.01-2.85-2.31-6.35-0.87-9.72c1.11-2.59,3.41-3.2,5.83-2.67c4.26,0.92,7.76,0.41,10.37-3.55
	c0.64-0.98,2.2-1.58,3.45-1.88c3.07-0.74,4.98-2.38,5.67-5.54c0.32-1.48,1.37-2.64,2.66-3.51c1.38,0.43,3.4,0.14,3.82,1.87
	c1.06,4.36,4.92,5.53,8.03,7.59c2.35,1.56,4.78,2.94,6.72,5.11c5.28,5.87,18.64,5.71,23.72-0.4c2.51-3.02,3.65-3.83,5.36,0.69
	c1.81,4.8,4.94,7.61,10.81,9.28c10.76,3.06,20.6,1.75,30.72-1.38C506.75,407.48,507.97,407.6,509.13,407.51z"/>
<path class="st1" d="M235.55,398.39c-0.65,2.69-2.79,3.14-5.02,3.05c-2.94-0.13-5.13,1.37-5.86,3.78
	c-4.63,15.32-15.07,27.36-22.8,40.92c-1.25,2.21-2.02,4.51-2.83,6.86c-1.14,3.3-2.21,6.15-6.68,6.86c-3.25,0.53-5.01,3.99-6.13,7.31
	c-0.84,2.51-2.05,4.89-3.09,7.33c-0.28,0-0.55,0.05-0.82,0.13l-0.05-0.1c-3.35,0.85-4.94,2.38-2.51,5.82
	c0.84,1.18,1.6,2.55,1.49,4.14c0.1,1.08-0.04,2.25,1.07,2.97c0.34,0.33,0.68,0.65,1.02,0.98c1.28,0.58,1.97,1.57,2.04,2.97
	c0.31,0.02,0.61,0.03,0.92,0.05c0.19,3.16,0.29,5.22-4.22,6.26c-6.76,1.56-12.64,5.6-15.67,12.5c-0.71-0.26-1.41-0.52-2.12-0.78
	c-0.64,0.01-1.29,0.01-1.93,0.01c-0.12-2-1.53-2.05-3.02-2.01h-0.01c-1.25-0.69-2.48-1.39-3.73-2.09c-0.09-0.31-0.17-0.62-0.23-0.93
	c-0.58-7.48-4.87-13.02-10.02-17.82c-2-1.86-3.35-3.43-3.07-6.15c-0.31-0.31-0.62-0.62-0.92-0.93c-1.75-0.06-3.49-0.05-5.04,0.96
	c-1.03-2.99-5.63-4.27-4.59-7.98c0.85-3.02,5.31-3.07,6.59-6.17c1.68,0.03,3.35,0.07,5.03,0.1c0.68-0.98,1.36-1.96,2.04-2.95
	c2.47-5.63,0.64-9.52-4.73-12.19c-1.44-0.72-3.11-1.35-4.22-0.59c-3.14,2.14-5.59,2.71-9.16,0.22c-1.94-1.35-3.92,2.25-5.95,3.51
	c-0.96,0-1.92-0.01-2.89-0.02c1.33-6.3,0.38-7.78-5.92-7.81c-2.64-0.02-3.73-1.64-5.18-3.14c-0.24-2.45-1.7-3.69-4.03-4.08
	c-0.97-0.01-1.94-0.01-2.9-0.02c-0.71,0.07-1.41,0.14-2.12,0.2c-0.96-0.41-1.92-0.82-2.88-1.23c-3.26-3.54-7.89-4.24-12.1-5.81
	c-0.02-0.31-0.04-0.61-0.04-0.92c-0.62-0.01-1.23-0.01-1.84-0.02c-0.23-0.15-0.44-0.32-0.64-0.5c0.2,0.19,0.41,0.36,0.64,0.51
	c-0.68,0.97-2.21,1.33-2.08,2.89c-0.88-0.01-1.67-0.23-2.24-0.97c0.64-2.13-0.43-4.02-0.79-6.01c-3.78-0.81-4.6-3.78-5.12-6.98
	c0.32-6.74-1.89-9.32-8.46-9.22c-2.32,0.04-2.58-1.5-3.38-2.82c-6.09,0.09-6.09,0.09-5.01,6.13c0.12,0.63,0.07,1.29,0.1,1.93
	c-2.3,1.88,0.96,6.95-4.14,7.22c-2.32-0.1-4.64-0.34-6.94-0.28c-2.84,0.08-3.45-1.31-1.8-3.19c8.26-9.43,11.33-20.96,13.74-32.81
	c3.25-3.98,1.65-7.97,0.01-11.96l0.01-0.01c-0.63-0.69-1.27-1.38-1.91-2.07c-0.04-2.31-0.09-4.62-0.14-6.92
	c0.1-0.39,0.21-0.78,0.31-1.17c0.59,0.35,1.18,0.71,1.77,1.06c2.73-2.29,6.34-2.78,9.36-4.51c1.86-1.07,3.58-0.28,4.87,1.28
	c2.61,3.17,4.38,1.93,5.92-1.01c0.54-1.03,1.08-2.08,1.8-2.99c3.08-3.88,6.8-4.34,10.77-1.42c5.93,4.36,8.34,3.82,13.33-1.59
	c3.32-3.62,6.42-7.33,7.98-11.92c2.01-5.9,8.62-7.37,11.32-12.72c1.24-2.48,11.1,0.9,11.59,3.94c0.53,3.35,1.82,6.83,4.86,7.45
	c3.66,0.73,6.87-1.74,9.02-5.04c0.99-1.53,2.12-2.96,3.19-4.44c3.75,0.12,7.44-0.6,11.06,1.83c3.25,2.18,5.81,4.16,5.94,8.44
	c0.05,1.53,0.99,3.2,1.93,4.51c6.89,9.6,17.85,13.27,29.45,10.13c1.49-0.41,2.41-1.23,2.78-2.54c1.01-3.68,3.77-4.3,6.96-4.12
	c5.52,0.32,10.71,1.52,15.58,4.52c4.05,2.5,3.69,5.35,1.27,8.14c-2.82,3.23-2.22,6.41-0.98,9.76c1.4,3.74,4.68,2.27,7.32,2.33
	c4.68,0.11,5.28,1.33,4.86,6.02C235.07,387.73,235.5,393.08,235.55,398.39z"/>
<path class="st2" d="M416.49,385.06c-1.29,0.87-2.34,2.02-2.66,3.51c-0.69,3.16-2.61,4.8-5.67,5.54c-1.25,0.3-2.81,0.9-3.45,1.88
	c-2.61,3.96-6.11,4.47-10.37,3.55c-2.42-0.52-4.72,0.09-5.83,2.67c-1.45,3.37-2.14,6.87,0.87,9.72c2.25,2.13,3.36,4.42,2.94,7.49
	c-0.4,2.92-1.42,4.49-4.44,2.36c-1.35-0.96-2.64-2.01-4.03-2.91c-3.28-2.13-6.01-1.17-5.23,2.24c1.64,7.12-2.38,11.12-6.44,15.45
	c-4.4-1.96-8.74-3.9-13.84-3.21c-2.45,0.33-3.65-1.92-4.94-3.68c-1.97-2.66-3-5.97-5.65-8.16c-2.63-2.18-4.89-3.34-8.86-1.78
	c-6.87,2.72-13.02-1.04-18.43-4.92c-2.71-1.95-4.51-2.15-7.54-0.94c-2.98,1.19-6.48,1.19-9.78,1.42c-2.58,0.18-4.38,1.3-5.71,3.4
	c-1.36-6.17-6.3-9.15-12.36-9.42c-6.13-0.28-12.73-0.19-17.8-5.04c-1-0.95-2.66-1.21-4.02-1.79c1.71-3.98,1.79-7.43-1.9-10.7
	c-4.77-4.23-3.86-8.53,1.95-11.41c0.72-0.36,1.67-0.78,1.96-1.42c1.81-4.02,4.02-6.5,9.11-4.76c1.6,0.55,3.34-1.44,4.11-3.63
	c1.22-3.45,1.02-6.96,0.67-10.36c-0.81-7.81,0.55-15.09,3.86-22.14c2.61-5.57,4.93-6.92,10.92-5.81c5.7,1.05,10.2-3.82,8.8-9.67
	c-0.57-2.41-1.66-4.69-1.46-7.27c0.28-3.6,0.21-6.81,5.77-6.15c4.49,0.53,7.46-3.03,7.97-8.98c0.33-3.81,1.49-5.92,5.23-7.31
	c5.29-1.98,5.43-3.43,3.02-12.28c2.52-1.59,5.26-2.82,8.21-2c4.11,1.14,5.99-3.77,9.75-3.24c3.07,2.65,6.55,4.52,10.58,5.12
	c2.06,0.31,3.9,1.02,5.38,2.39c6.89,6.36,13.76,3.1,20.43-0.23c2.08-1.04,3.54-1.17,4.66,0.65c1.55,2.51,3.52,4.29,6.25,5.44
	c2.02,0.86,2.76,2.64,2.79,4.87c0.05,3.27,1.19,5.32,4.97,6.24c6.76,1.65,7.37,3.47,4.55,10.07c-0.57,1.33-0.27,2.16,0.46,3.15
	c0.88,1.2,2.21,2.35,2.45,3.69c0.79,4.39,3.01,5.08,7.11,4.16c7.68-1.72,16.57,6.85,15.52,14.6c-0.38,2.83,1.09,4.79,2.95,6.52
	c1.95,1.82,2.77,4.26,1.5,6.3c-1.51,2.43-4.17,1.23-6.26,0.28c-2.53-1.16-5.5-2.2-7.55-0.45c-2.45,2.09-2.05,5.4-0.67,8.31
	c1.89,3.99,0.9,8.97,5.4,12.26c1.87,1.36-0.11,5.06-2.18,6.95C416.76,378.24,415.68,381.3,416.49,385.06z"/>
</svg>
